<svg xmlns="http://www.w3.org/2000/svg" width="3.778in" height="2.833in" viewBox="0 0 272 204"><defs><style>.a{fill:#ffe9e4;}.b{fill:#ffd1c7;}.c{fill:#3a36e4;}.d{fill:#fff;}</style></defs><rect class="a" width="272" height="204"/><rect class="b" x="73" y="39" width="126" height="126" rx="18.16"/><path class="c" d="M136,132.366a1.5,1.5,0,0,1-1.5-1.5V74.38a1.5,1.5,0,0,1,3,0v56.486A1.5,1.5,0,0,1,136,132.366Z"/><path class="c" d="M149.121,132.366H122.879a1.5,1.5,0,1,1,0-3h26.242a1.5,1.5,0,0,1,0,3Z"/><path class="c" d="M164.866,85.131a1.5,1.5,0,0,1-1.5-1.5v-9H108.634v9a1.5,1.5,0,0,1-3,0v-10.5a1.5,1.5,0,0,1,1.5-1.5h57.732a1.5,1.5,0,0,1,1.5,1.5v10.5A1.5,1.5,0,0,1,164.866,85.131Z"/><polygon class="d" points="77.298 126.004 101.012 118.591 94.281 141.091 89.223 134.969 81.005 143.562 75.833 138.62 84.452 130.826 77.298 126.004"/><path class="c" d="M81.005,145.062a1.491,1.491,0,0,1-1.036-.415L74.8,139.705a1.5,1.5,0,0,1,.03-2.2l7.2-6.509-5.565-3.751a1.5,1.5,0,0,1,.392-2.676l23.713-7.413a1.5,1.5,0,0,1,1.885,1.862l-6.731,22.5a1.5,1.5,0,0,1-2.594.525l-3.983-4.82L82.089,144.6A1.5,1.5,0,0,1,81.005,145.062Zm-2.97-6.412,2.922,2.792,7.182-7.509a1.472,1.472,0,0,1,1.138-.462,1.5,1.5,0,0,1,1.1.544l3.269,3.956,5.118-17.107-18.041,5.641,4.566,3.077a1.5,1.5,0,0,1,.167,2.356Z"/></svg>